# xmcd
#
# Track frame offsets:
#	150
#	19757
#	39135
#	59880
#	70810
#	88807
#	106360
#	124015
#	142282
#	160827
#	176335
#
# Disc length: 2638 seconds
#
# Revision: 1
# Processed by: cddbd v1.5.1PL2 Copyright (c) Steve Scherf et al.
# Submitted via: audiograbber 1.83.01
#
DISCID=980a4c0b
DTITLE=Billy Tulsa - Tennessee Rain
DYEAR=1999
DGENRE=Alt-Country
TTITLE0=You Drive Me Crazy
TTITLE1=Tennessee Rain
TTITLE2=Somewhere In Time
TTITLE3=You Lied
TTITLE4=Crazy
TTITLE5=American Girls
TTITLE6=Separate Lives
TTITLE7=Where Are You Now
TTITLE8=Yo Te Quero
TTITLE9=The Border
TTITLE10=Going Home Alone
EXTD=
EXTT0=
EXTT1=
EXTT2=
EXTT3=
EXTT4=
EXTT5=
EXTT6=
EXTT7=
EXTT8=
EXTT9=
EXTT10=
PLAYORDER=
